<?xml version="1.0" standalone="no"?>
<!DOCTYPE svg PUBLIC "-//W3C//DTD SVG 20010904//EN"
 "http://www.w3.org/TR/2001/REC-SVG-20010904/DTD/svg10.dtd">
<svg version="1.0" xmlns="http://www.w3.org/2000/svg"
 width="512.000000pt" height="512.000000pt" viewBox="0 0 512.000000 512.000000"
 preserveAspectRatio="xMidYMid meet">
<metadata>
Created by potrace 1.14, written by Peter Selinger 2001-2017
</metadata>
<g transform="translate(0.000000,512.000000) scale(0.100000,-0.100000)"
fill="#000000" stroke="none">
<path d="M381 3808 c1 -513 4 -1095 8 -1292 l6 -359 23 -3 c12 -2 22 1 22 6 0
7 7 7 20 0 20 -11 20 -8 20 1230 l0 1240 1478 0 1479 0 481 -585 482 -585 0
-1275 c0 -879 4 -1275 11 -1275 5 0 8 4 4 9 -3 5 0 13 6 17 8 4 9 3 5 -4 -4
-7 -1 -12 6 -12 10 0 10 -2 -1 -9 -7 -5 -9 -10 -3 -12 6 -2 3 -10 -6 -19 -14
-13 -15 -12 -9 3 3 9 2 17 -3 17 -5 0 -9 -11 -8 -25 3 -29 13 -33 23 -7 6 16
7 16 17 -1 7 -13 17 -17 34 -13 l24 6 0 -130 0 -130 -1443 0 -1444 0 -609 765
-609 765 -3 -156 -3 -156 150 -191 c83 -106 334 -421 558 -702 l408 -510 1583
-3 1582 -2 0 1590 0 1589 -487 576 -488 575 -1657 0 -1658 0 1 -932z m4119
-2909 c0 -14 -17 -10 -23 5 -4 10 -1 13 9 9 7 -3 14 -9 14 -14z m-35 1 c3 -5
1 -10 -4 -10 -6 0 -11 5 -11 10 0 6 2 10 4 10 3 0 8 -4 11 -10z m35 -24 c0 -9
-40 -13 -46 -5 -3 5 6 9 20 9 14 0 26 -2 26 -4z"/>
<path d="M660 3344 l0 -1116 153 -185 c83 -103 230 -281 325 -397 96 -116 251
-305 345 -421 206 -253 233 -281 255 -263 13 11 14 11 8 0 -13 -21 26 -10 47
13 10 11 16 15 13 9 -3 -7 3 -14 14 -17 11 -3 18 -2 16 1 -2 4 2 13 10 19 8 8
15 9 19 3 3 -6 0 -10 -7 -10 -10 0 -10 -2 1 -9 8 -5 20 -7 28 -4 7 3 13 1 13
-5 0 -5 7 -13 16 -16 14 -5 15 -4 4 9 -7 8 -9 15 -4 15 5 0 2 5 -6 10 -9 6
-10 10 -3 10 6 0 18 -8 25 -17 14 -19 58 -29 58 -13 0 5 13 4 31 -2 25 -8 33
-8 40 3 6 9 9 10 9 2 0 -13 91 -10 112 3 8 5 9 1 4 -11 -6 -16 -4 -16 11 -4
10 7 24 20 32 29 12 13 13 13 8 -2 -5 -13 -1 -16 19 -12 13 2 24 0 24 -5 0
-15 41 -20 47 -5 3 9 10 11 22 5 13 -7 20 -4 29 10 7 11 17 17 23 13 7 -4 6
-10 -1 -19 -9 -11 -7 -14 9 -12 11 0 18 4 15 8 -2 4 0 10 6 14 5 3 10 0 10 -9
0 -8 7 -13 18 -11 9 2 21 4 25 4 5 1 5 5 2 11 -4 6 1 7 11 3 13 -5 15 -3 9 8
-5 8 2 5 14 -5 23 -21 51 -30 51 -16 0 5 -5 10 -12 12 -8 3 -6 7 5 11 9 3 16
3 16 -1 -3 -19 2 -29 16 -29 8 0 15 4 15 9 0 5 4 7 9 4 5 -3 14 1 21 9 9 11
17 12 31 4 10 -5 19 -7 19 -4 0 4 8 -1 17 -11 16 -15 17 -15 24 2 4 11 8 13 8
6 1 -7 5 -11 10 -7 5 3 12 -3 14 -12 4 -16 5 -16 6 1 0 11 -5 27 -11 36 -7 9
0 2 16 -14 16 -17 26 -26 22 -20 -3 7 1 15 10 18 8 3 13 2 10 -3 -3 -5 1 -11
9 -14 9 -4 12 -1 8 9 -6 17 13 19 20 2 4 -10 8 -9 16 2 9 13 11 13 11 -2 0
-13 10 -16 55 -15 35 1 55 6 55 14 0 6 4 14 9 17 5 3 8 -1 7 -10 0 -9 9 -20
22 -25 13 -5 22 -5 22 1 0 6 -8 10 -17 11 -15 0 -15 2 2 9 27 12 37 12 30 1
-9 -16 32 -23 54 -9 12 7 21 16 21 21 0 4 -5 5 -12 1 -7 -5 -8 -3 -3 6 6 10
11 10 20 -3 7 -9 15 -14 18 -10 4 3 7 2 7 -4 0 -5 6 -10 13 -11 62 -6 97 -5
97 3 0 6 5 3 10 -5 8 -13 11 -12 25 5 10 13 14 15 13 5 -2 -10 7 -16 26 -18
17 -2 26 0 22 7 -4 5 -2 12 4 16 5 3 10 -1 10 -11 0 -14 2 -15 17 -3 14 12 16
12 9 -1 -6 -12 -5 -11 6 1 17 21 68 34 68 18 0 -7 3 -9 7 -6 3 4 15 -1 26 -10
11 -10 17 -13 14 -7 -4 7 0 14 8 17 9 4 12 1 8 -9 -7 -20 7 -18 23 3 10 15 15
16 26 5 11 -11 11 -13 -1 -10 -7 2 -15 -1 -17 -7 -2 -5 12 -10 31 -10 19 0 35
2 35 5 0 3 20 5 45 5 28 0 41 3 35 10 -16 15 -11 29 5 15 12 -10 18 -10 29 -1
12 10 15 8 19 -11 4 -19 5 -18 6 6 1 29 2 29 17 10 8 -10 12 -13 8 -5 -5 10
-3 12 5 7 7 -5 10 -14 8 -20 -3 -7 1 -13 9 -13 7 0 11 4 8 9 -3 4 1 8 8 9 7 0
25 2 41 3 15 1 27 -2 27 -7 0 -5 -11 -7 -25 -5 -13 3 -22 1 -19 -3 2 -5 20 -8
39 -7 19 1 32 5 29 10 -3 4 7 8 23 8 22 0 25 -2 13 -10 -12 -8 -10 -10 8 -10
13 0 21 4 17 9 -3 5 -1 12 5 16 5 3 10 -1 10 -10 0 -12 4 -14 19 -5 25 13 34
13 26 0 -3 -5 1 -10 10 -10 9 0 13 5 10 10 -3 6 4 10 17 11 13 0 32 2 43 4 11
3 26 -3 32 -12 10 -13 13 237 13 1219 l0 1236 -442 521 -443 520 -1322 0
-1323 1 0 -1116z m1620 -49 l0 -85 90 0 90 0 0 -90 0 -90 -180 0 -180 0 0 85
0 85 -175 0 -175 0 0 -172 0 -173 352 0 353 0 5 -90 5 -90 85 0 c75 0 85 -2
84 -17 0 -10 -1 -92 -2 -183 l-2 -165 -85 0 -85 0 0 -90 0 -90 -445 0 -445 0
0 85 0 85 -89 0 -88 0 -5 88 c-3 48 -3 90 -1 95 2 4 83 7 179 7 l174 0 0 -87
0 -88 270 3 270 3 0 169 0 170 -355 0 -355 0 0 90 0 90 -90 0 -90 0 0 180 0
180 85 0 85 0 0 90 0 90 360 0 360 0 0 -85z m750 -445 l0 -530 355 0 355 0 0
-95 0 -95 -535 0 -535 0 0 625 0 625 180 0 180 0 0 -530z m30 -1844 c0 -2 -8
-10 -17 -17 -16 -13 -17 -12 -4 4 13 16 21 21 21 13z m505 -6 c3 -5 1 -10 -4
-10 -6 0 -11 5 -11 10 0 6 2 10 4 10 3 0 8 -4 11 -10z m-1835 -4 c0 -2 -7 -7
-16 -10 -8 -3 -12 -2 -9 4 6 10 25 14 25 6z m550 -6 c0 -5 -5 -10 -11 -10 -5
0 -7 5 -4 10 3 6 8 10 11 10 2 0 4 -4 4 -10z m257 -12 c-3 -8 -6 -5 -6 6 -1
11 2 17 5 13 3 -3 4 -12 1 -19z m-362 2 c-3 -5 -12 -10 -18 -10 -7 0 -6 4 3
10 19 12 23 12 15 0z m-68 -6 c-3 -3 -12 -4 -19 -1 -8 3 -5 6 6 6 11 1 17 -2
13 -5z m817 -6 c-3 -4 -11 -5 -19 -1 -21 7 -19 12 4 10 11 0 18 -5 15 -9z
m776 8 c0 -2 -7 -7 -16 -10 -8 -3 -12 -2 -9 4 6 10 25 14 25 6z m-593 -12 c-3
-3 -12 -4 -19 -1 -8 3 -5 6 6 6 11 1 17 -2 13 -5z"/>
<path d="M2647 968 c-3 -10 0 -19 9 -22 8 -3 14 -1 14 5 0 6 5 7 12 3 7 -4 8
-3 4 5 -4 6 -11 9 -16 6 -4 -3 -10 0 -12 7 -3 8 -7 6 -11 -4z"/>
</g>
</svg>
